# xmcd
# 
# Track frame offsets:
#     150
#     26092
#     47394
# 
# Disc length: 902
# 
# Revision: 0
# Processed by: cddbd v1.5.2PL0 Copyright (c) Steve Scherf et al.
# Submitted via: BonkEnc v1.0.8
# 
DISCID=1a038403
DTITLE=ファンキー加藤 - ファンキー加藤　太陽
DYEAR=14
DGENRE=J-POP
TTITLE0=太陽
TTITLE1=FLY
TTITLE2=ヒマワリノユメ
EXTD=
EXTT0=
EXTT1=
EXTT2=
PLAYORDER=
